<?xml version="1.0" encoding="UTF-8" standalone="no"?>
<!-- Created with Inkscape (http://www.inkscape.org/) -->

<svg
   width="32"
   height="32"
   viewBox="0 0 8.4666666 8.4666666"
   version="1.1"
   id="svg5"
   inkscape:version="1.2.2 (732a01da63, 2022-12-09)"
   sodipodi:docname="project-epoxide-logo.svg"
   inkscape:export-filename="epoxide-logo-hexagon.svg"
   inkscape:export-xdpi="1920"
   inkscape:export-ydpi="1920"
   xmlns:inkscape="http://www.inkscape.org/namespaces/inkscape"
   xmlns:sodipodi="http://sodipodi.sourceforge.net/DTD/sodipodi-0.dtd"
   xmlns:xlink="http://www.w3.org/1999/xlink"
   xmlns="http://www.w3.org/2000/svg"
   xmlns:svg="http://www.w3.org/2000/svg">
  <sodipodi:namedview
     id="namedview7"
     pagecolor="#505050"
     bordercolor="#eeeeee"
     borderopacity="1"
     inkscape:showpageshadow="0"
     inkscape:pageopacity="0"
     inkscape:pagecheckerboard="0"
     inkscape:deskcolor="#505050"
     inkscape:document-units="px"
     showgrid="false"
     inkscape:zoom="5.6568543"
     inkscape:cx="20.948038"
     inkscape:cy="-7.9549512"
     inkscape:window-width="2560"
     inkscape:window-height="1387"
     inkscape:window-x="2552"
     inkscape:window-y="-8"
     inkscape:window-maximized="1"
     inkscape:current-layer="layer1"
     showguides="false" />
  <defs
     id="defs2">
    <inkscape:path-effect
       effect="fillet_chamfer"
       id="path-effect31141"
       is_visible="true"
       lpeversion="1"
       nodesatellites_param="F,0,1,1,0,0.077739717,0,1 @ F,0,0,1,0,0,0,1 @ F,0,0,1,0,0.064078776,0,1 @ F,0,0,1,0,0.050159456,0,1 @ F,0,0,1,0,0,0,1 @ F,0,0,1,0,0,0,1 @ F,0,0,1,0,0,0,1 @ F,0,0,1,0,0,0,1 @ F,0,0,1,0,0,0,1 @ F,0,0,1,0,0,0,1 @ F,0,0,1,0,0,0,1 @ F,0,0,1,0,0,0,1 @ F,0,0,1,0,0,0,1 @ F,0,0,1,0,0.091984049,0,1 @ F,0,0,1,0,0.06708611,0,1 @ F,0,0,1,0,0,0,1 @ F,0,0,1,0,0,0,1 @ F,0,0,1,0,0,0,1 @ F,0,0,1,0,0,0,1 @ F,0,0,1,0,0,0,1 @ F,0,0,1,0,0,0,1 @ F,0,0,1,0,0,0,1 @ F,0,0,1,0,0,0,1 @ F,0,0,1,0,0,0,1 @ F,0,0,1,0,0.068524539,0,1 @ F,0,0,1,0,0.046866437,0,1 @ F,0,0,1,0,0,0,1 @ F,0,0,1,0,0,0,1 @ F,0,0,1,0,0,0,1 @ F,0,0,1,0,0,0,1 @ F,0,0,1,0,0,0,1 @ F,0,0,1,0,0,0,1 @ F,0,0,1,0,0,0,1 @ F,0,0,1,0,0,0,1 @ F,0,0,1,0,0.049349418,0,1 | F,0,0,1,0,0,0,1 @ F,0,0,1,0,0,0,1 | F,0,0,1,0,0,0,1 @ F,0,0,1,0,0,0,1"
       unit="px"
       method="auto"
       mode="F"
       radius="0"
       chamfer_steps="1"
       flexible="false"
       use_knot_distance="false"
       apply_no_radius="true"
       apply_with_radius="true"
       only_selected="false"
       hide_knots="false" />
    <inkscape:path-effect
       effect="fillet_chamfer"
       id="path-effect31012"
       is_visible="true"
       lpeversion="1"
       nodesatellites_param="IF,0,0,1,0,0,0,1 @ IF,0,0,1,0,0,0,1 @ IF,0,0,1,0,0,0,1 @ IF,0,0,1,0,0,0,1 @ IF,0,0,1,0,0,0,1 @ IF,0,0,1,0,0,0,1 @ IF,0,0,1,0,0,0,1 @ IF,0,0,1,0,0,0,1 @ IF,0,0,1,0,0,0,1 @ IF,0,0,1,0,0,0,1 @ IF,0,0,1,0,0,0,1 @ IF,0,0,1,0,0,0,1 @ IF,0,0,1,0,0,0,1 @ IF,0,0,1,0,0,0,1 @ IF,0,0,1,0,0,0,1 @ IF,0,0,1,0,0,0,1 @ IF,0,0,1,0,0,0,1 @ IF,0,0,1,0,0,0,1 @ IF,0,0,1,0,0,0,1 @ IF,0,0,1,0,0,0,1 @ IF,0,0,1,0,0,0,1 @ IF,0,0,1,0,0,0,1 @ IF,0,0,1,0,0,0,1 @ IF,0,0,1,0,0,0,1"
       unit="px"
       method="auto"
       mode="F"
       radius="20"
       chamfer_steps="1"
       flexible="false"
       use_knot_distance="false"
       apply_no_radius="true"
       apply_with_radius="true"
       only_selected="false"
       hide_knots="false" />
    <inkscape:path-effect
       effect="fillet_chamfer"
       id="path-effect31008"
       is_visible="true"
       lpeversion="1"
       nodesatellites_param="F,0,0,1,0,0,0,1 @ F,0,0,1,0,0,0,1 @ F,0,0,1,0,0,0,1 @ F,0,0,1,0,0,0,1 @ F,0,0,1,0,0,0,1 @ F,0,0,1,0,0,0,1 @ F,0,0,1,0,0,0,1 @ F,0,0,1,0,0,0,1 @ F,0,0,1,0,0,0,1 @ F,0,0,1,0,0,0,1 @ F,0,0,1,0,0,0,1 @ F,0,0,1,0,0,0,1 @ F,0,0,1,0,0,0,1 @ F,0,0,1,0,0,0,1 @ F,0,0,1,0,0,0,1 @ F,0,0,1,0,0,0,1 @ F,0,0,1,0,0,0,1 @ F,0,0,1,0,0,0,1 @ F,0,0,1,0,0,0,1 @ F,0,0,1,0,0,0,1 @ F,0,0,1,0,0,0,1"
       unit="px"
       method="auto"
       mode="F"
       radius="0"
       chamfer_steps="1"
       flexible="false"
       use_knot_distance="true"
       apply_no_radius="true"
       apply_with_radius="true"
       only_selected="false"
       hide_knots="false" />
    <inkscape:path-effect
       effect="powerclip"
       id="path-effect29341"
       is_visible="true"
       lpeversion="1"
       inverse="true"
       flatten="false"
       hide_clip="false"
       message="Use fill-rule evenodd on &lt;b&gt;fill and stroke&lt;/b&gt; dialog if no flatten result after convert clip to paths." />
    <pattern
       inkscape:collect="always"
       xlink:href="#Strips1_1"
       id="pattern29283"
       patternTransform="matrix(10,0,0,10,11.064228,3.636536)" />
    <pattern
       inkscape:collect="always"
       patternUnits="userSpaceOnUse"
       width="2"
       height="1"
       patternTransform="translate(0,0) scale(10,10)"
       id="Strips1_1"
       inkscape:stockid="Stripes 1:1"
       inkscape:isstock="true">
      <rect
         style="fill:black;stroke:none"
         x="0"
         y="-0.5"
         width="1"
         height="2"
         id="rect26786" />
    </pattern>
    <inkscape:path-effect
       effect="powerclip"
       id="path-effect25791"
       is_visible="true"
       lpeversion="1"
       inverse="true"
       flatten="false"
       hide_clip="false"
       message="Use fill-rule evenodd on &lt;b&gt;fill and stroke&lt;/b&gt; dialog if no flatten result after convert clip to paths." />
    <inkscape:path-effect
       effect="fillet_chamfer"
       id="path-effect23330"
       is_visible="true"
       lpeversion="1"
       nodesatellites_param="C,0,0,1,0,0,0,1 @ C,0,0,1,0,0,0,1 @ C,0,0,1,0,0,0,1 @ C,0,0,1,0,0,0,1"
       unit="px"
       method="auto"
       mode="F"
       radius="0"
       chamfer_steps="1"
       flexible="false"
       use_knot_distance="true"
       apply_no_radius="true"
       apply_with_radius="true"
       only_selected="false"
       hide_knots="false" />
    <inkscape:path-effect
       effect="fillet_chamfer"
       id="path-effect13758"
       is_visible="true"
       lpeversion="1"
       nodesatellites_param="F,0,0,1,0,0.05,0,1 @ F,0,0,1,0,0.05,0,1 @ F,0,0,1,0,0.05,0,1 @ F,0,0,1,0,0.05,0,1"
       unit="px"
       method="auto"
       mode="F"
       radius="0"
       chamfer_steps="1"
       flexible="false"
       use_knot_distance="true"
       apply_no_radius="true"
       apply_with_radius="true"
       only_selected="false"
       hide_knots="false" />
    <inkscape:path-effect
       effect="fillet_chamfer"
       id="path-effect3946"
       is_visible="true"
       lpeversion="1"
       nodesatellites_param="F,0,0,1,0,0.1,0,1 @ F,0,0,1,0,0.1,0,1 @ F,0,0,1,0,0.1,0,1 @ F,0,0,1,0,0.1,0,1 @ F,0,0,1,0,0.1,0,1 @ F,0,0,1,0,0.1,0,1"
       unit="px"
       method="auto"
       mode="F"
       radius="0"
       chamfer_steps="1"
       flexible="false"
       use_knot_distance="true"
       apply_no_radius="true"
       apply_with_radius="true"
       only_selected="false"
       hide_knots="false" />
    <inkscape:path-effect
       effect="fillet_chamfer"
       id="path-effect3897"
       is_visible="true"
       lpeversion="1"
       nodesatellites_param="C,0,0,1,0,10,0,1 @ C,0,0,1,0,2.8654194,0,1 @ F,0,0,1,0,100,0,1 @ C,0,0,1,0,10,0,1 @ C,0,0,1,0,10,0,1 @ C,0,0,1,0,10,0,1"
       unit="px"
       method="auto"
       mode="F"
       radius="8"
       chamfer_steps="2"
       flexible="false"
       use_knot_distance="true"
       apply_no_radius="true"
       apply_with_radius="true"
       only_selected="false"
       hide_knots="false" />
    <clipPath
       clipPathUnits="userSpaceOnUse"
       id="clipPath13568">
      <circle
         style="fill:#defcfc;fill-opacity:1;stroke:#bcbcbc;stroke-width:0;stroke-dasharray:none;stroke-opacity:1"
         id="circle13570"
         cx="1.9937763"
         cy="2.5082703"
         r="1.0583329"
         inkscape:label="Big glare"
         mask="none"
         clip-path="none" />
    </clipPath>
    <clipPath
       clipPathUnits="userSpaceOnUse"
       id="clipPath13568-7">
      <circle
         style="fill:#defcfc;fill-opacity:1;stroke:#bcbcbc;stroke-width:0;stroke-dasharray:none;stroke-opacity:1"
         id="circle13570-6"
         cx="1.9937763"
         cy="2.5082703"
         r="1.0583329"
         inkscape:label="Big glare"
         mask="none"
         clip-path="none" />
    </clipPath>
    <inkscape:path-effect
       effect="fillet_chamfer"
       id="path-effect13758-2"
       is_visible="true"
       lpeversion="1"
       nodesatellites_param="F,0,0,1,0,0.05,0,1 @ F,0,0,1,0,0.05,0,1 @ F,0,0,1,0,0.05,0,1 @ F,0,0,1,0,0.05,0,1"
       unit="px"
       method="auto"
       mode="F"
       radius="0"
       chamfer_steps="1"
       flexible="false"
       use_knot_distance="true"
       apply_no_radius="true"
       apply_with_radius="true"
       only_selected="false"
       hide_knots="false" />
    <clipPath
       clipPathUnits="userSpaceOnUse"
       id="clipPath25787">
      <ellipse
         style="display:none;fill:#452c2b;fill-opacity:1;stroke:#242e25;stroke-width:0.0552696;stroke-dasharray:none;stroke-opacity:1"
         id="ellipse25789"
         cx="4.2333331"
         cy="4.4637852"
         rx="1.0306985"
         ry="1.0306984"
         d="M 5.2640316,4.4637852 A 1.0306985,1.0306984 0 0 1 4.2333331,5.4944836 1.0306985,1.0306984 0 0 1 3.2026346,4.4637852 1.0306985,1.0306984 0 0 1 4.2333331,3.4330868 1.0306985,1.0306984 0 0 1 5.2640316,4.4637852 Z" />
    </clipPath>
    <clipPath
       clipPathUnits="userSpaceOnUse"
       id="clipPath25787-1">
      <ellipse
         style="display:none;fill:#452c2b;fill-opacity:1;stroke:#242e25;stroke-width:0.0552696;stroke-dasharray:none;stroke-opacity:1"
         id="ellipse25789-4"
         cx="4.2333331"
         cy="4.4637852"
         rx="1.0306985"
         ry="1.0306984"
         d="M 5.2640316,4.4637852 A 1.0306985,1.0306984 0 0 1 4.2333331,5.4944836 1.0306985,1.0306984 0 0 1 3.2026346,4.4637852 1.0306985,1.0306984 0 0 1 4.2333331,3.4330868 1.0306985,1.0306984 0 0 1 5.2640316,4.4637852 Z" />
      <path
         id="lpe_path-effect25791-4"
         style="fill:#452c2b;fill-opacity:1;stroke:#242e25;stroke-width:0.0552696;stroke-dasharray:none;stroke-opacity:1"
         class="powerclip"
         d="M -3.1479166,0.29166665 H 11.614583 V 11.614583 H -3.1479166 Z M 5.2640316,4.4637852 A 1.0306985,1.0306984 0 0 0 4.2333331,3.4330868 1.0306985,1.0306984 0 0 0 3.2026346,4.4637852 1.0306985,1.0306984 0 0 0 4.2333331,5.4944836 1.0306985,1.0306984 0 0 0 5.2640316,4.4637852 Z" />
    </clipPath>
    <inkscape:path-effect
       effect="powerclip"
       id="path-effect25791-6"
       is_visible="true"
       lpeversion="1"
       inverse="true"
       flatten="false"
       hide_clip="false"
       message="Use fill-rule evenodd on &lt;b&gt;fill and stroke&lt;/b&gt; dialog if no flatten result after convert clip to paths." />
    <clipPath
       clipPathUnits="userSpaceOnUse"
       id="clipath_lpe_path-effect25791-6">
      <path
         id="lpe_path-effect25791-6"
         style="fill:#452c2b;fill-opacity:1;stroke:#242e25;stroke-width:0.0552696;stroke-dasharray:none;stroke-opacity:1"
         class="powerclip"
         d="M -3.1479166,0.29166665 H 11.614583 V 11.614583 H -3.1479166 Z M 5.2640316,4.4637852 A 1.0306985,1.0306984 0 0 0 4.2333331,3.4330868 1.0306985,1.0306984 0 0 0 3.2026346,4.4637852 1.0306985,1.0306984 0 0 0 4.2333331,5.4944836 1.0306985,1.0306984 0 0 0 5.2640316,4.4637852 Z" />
    </clipPath>
    <clipPath
       clipPathUnits="userSpaceOnUse"
       id="clipath_lpe_path-effect29341">
      <ellipse
         style="display:block;fill:#452c2b;fill-opacity:1;stroke:#242e25;stroke-width:0.0552696;stroke-dasharray:none;stroke-opacity:1"
         id="ellipse29343"
         cx="4.2333331"
         cy="4.4637852"
         rx="1.0306985"
         ry="1.0306984" />
    </clipPath>
    <inkscape:path-effect
       effect="fillet_chamfer"
       id="path-effect31141-2"
       is_visible="true"
       lpeversion="1"
       nodesatellites_param="F,0,1,1,0,0.077739717,0,1 @ F,0,0,1,0,0,0,1 @ F,0,0,1,0,0.064078776,0,1 @ F,0,0,1,0,0.050159456,0,1 @ F,0,0,1,0,0,0,1 @ F,0,0,1,0,0,0,1 @ F,0,0,1,0,0,0,1 @ F,0,0,1,0,0,0,1 @ F,0,0,1,0,0,0,1 @ F,0,0,1,0,0,0,1 @ F,0,0,1,0,0,0,1 @ F,0,0,1,0,0,0,1 @ F,0,0,1,0,0,0,1 @ F,0,0,1,0,0.091984049,0,1 @ F,0,0,1,0,0.06708611,0,1 @ F,0,0,1,0,0,0,1 @ F,0,0,1,0,0,0,1 @ F,0,0,1,0,0,0,1 @ F,0,0,1,0,0,0,1 @ F,0,0,1,0,0,0,1 @ F,0,0,1,0,0,0,1 @ F,0,0,1,0,0,0,1 @ F,0,0,1,0,0,0,1 @ F,0,0,1,0,0,0,1 @ F,0,0,1,0,0.068524539,0,1 @ F,0,0,1,0,0.046866437,0,1 @ F,0,0,1,0,0,0,1 @ F,0,0,1,0,0,0,1 @ F,0,0,1,0,0,0,1 @ F,0,0,1,0,0,0,1 @ F,0,0,1,0,0,0,1 @ F,0,0,1,0,0,0,1 @ F,0,0,1,0,0,0,1 @ F,0,0,1,0,0,0,1 @ F,0,0,1,0,0.049349418,0,1"
       unit="px"
       method="auto"
       mode="F"
       radius="0"
       chamfer_steps="1"
       flexible="false"
       use_knot_distance="false"
       apply_no_radius="true"
       apply_with_radius="true"
       only_selected="false"
       hide_knots="false" />
  </defs>
  <g
     inkscape:label="Background"
     inkscape:groupmode="layer"
     id="layer1">
    <path
       sodipodi:type="star"
       style="display:none;fill:#a3e5ee;fill-opacity:1;stroke:#bcbcbc;stroke-width:0;stroke-dasharray:none;stroke-opacity:1"
       id="path3880"
       inkscape:flatsided="true"
       sodipodi:sides="6"
       sodipodi:cx="1.0121714"
       sodipodi:cy="1.1748416"
       sodipodi:r1="2.8654194"
       sodipodi:r2="2.4815259"
       sodipodi:arg1="1.5707963"
       sodipodi:arg2="2.0943951"
       inkscape:rounded="0"
       inkscape:randomized="0"
       transform="matrix(1.4393862,0,0,1.3981241,2.7764278,2.5907589)"
       inkscape:path-effect="#path-effect3946"
       d="M 0.92556892,3.990261 -1.382752,2.6575514 a 0.17320508,0.17320508 59.999998 0 1 -0.086603,-0.15 v -2.66541939 a 0.17320508,0.17320508 120 0 1 0.086602,-0.15 L 0.92556877,-1.6405777 a 0.17320508,0.17320508 -180 0 1 0.17320513,0 l 2.3083209,1.33270958 a 0.17320508,0.17320508 59.999998 0 1 0.086603,0.15 l 10e-8,2.66541942 a 0.17320508,0.17320508 120 0 1 -0.086602,0.15 L 1.098774,3.990261 a 0.17320508,0.17320508 -180 0 1 -0.17320508,0 z"
       inkscape:label="Hexagon" />
    <circle
       style="display:inline;fill:#a3e5ee;fill-opacity:1;stroke:#242e25;stroke-width:0;stroke-dasharray:none"
       id="path377"
       cx="4.2333331"
       cy="4.2333331"
       r="3.9209597"
       inkscape:label="Circle" />
    <rect
       style="display:none;fill:#a3e5ee;fill-opacity:1;stroke:#242e25;stroke-width:0;stroke-dasharray:none"
       id="rect1087"
       width="8.4666662"
       height="8.4666653"
       x="1.8919067e-07"
       y="6.6602786e-07"
       inkscape:label="Fill" />
  </g>
  <g
     inkscape:groupmode="layer"
     id="layer2"
     inkscape:label="Sunglasses">
    <circle
       style="fill:#1e2a61;fill-opacity:1;stroke:#bcbcbc;stroke-width:0;stroke-dasharray:none;stroke-opacity:1"
       id="path4017"
       cx="2.645833"
       cy="3.4395831"
       r="1.269999"
       inkscape:label="Glass left" />
    <circle
       style="fill:#1e2a61;fill-opacity:1;stroke:#bcbcbc;stroke-width:0;stroke-dasharray:none;stroke-opacity:1"
       id="path4017-4"
       cx="5.8208332"
       cy="3.4395831"
       r="1.269999"
       inkscape:label="Glass right" />
    <rect
       style="fill:#1e2a61;fill-opacity:1;stroke:#bcbcbc;stroke-width:0;stroke-dasharray:none;stroke-opacity:1"
       id="rect11117"
       width="2.1166658"
       height="0.26458234"
       x="3.1750004"
       y="3.3072922"
       inkscape:label="Bridge" />
    <circle
       style="fill:#dcf2f2;fill-opacity:1;stroke:#bcbcbc;stroke-width:0;stroke-dasharray:none;stroke-opacity:1"
       id="path4017-9"
       cx="2.645833"
       cy="3.4395831"
       r="1.0583326"
       inkscape:label="Big glare left"
       clip-path="url(#clipPath13568)"
       transform="matrix(1.2,0,0,1.2,-0.5291666,-0.68791661)" />
    <circle
       style="fill:#dcf2f2;fill-opacity:1;stroke:#bcbcbc;stroke-width:0;stroke-dasharray:none;stroke-opacity:1"
       id="path4017-9-0"
       cx="2.645833"
       cy="3.4395831"
       r="1.0583326"
       inkscape:label="Big glare right"
       clip-path="url(#clipPath13568-7)"
       transform="matrix(1.2,0,0,1.2,2.6458334,-0.68791661)" />
    <path
       style="fill:#dcf2f2;fill-opacity:1;stroke:#bcbcbc;stroke-width:0;stroke-dasharray:none;stroke-opacity:1"
       id="rect13724"
       width="0.6349991"
       height="0.15874934"
       x="-0.021775555"
       y="-4.4992323"
       transform="rotate(145)"
       inkscape:label="Small glare left"
       inkscape:path-effect="#path-effect13758"
       d="m 0.02822445,-4.4992323 h 0.53499909 a 0.05,0.05 45 0 1 0.05,0.05 v 0.058749 a 0.05,0.05 135 0 1 -0.05,0.05 H 0.02822445 a 0.05,0.05 45 0 1 -0.05,-0.05 v -0.058749 a 0.05,0.05 135 0 1 0.05,-0.05 z"
       sodipodi:type="rect" />
    <path
       style="fill:#dcf2f2;fill-opacity:1;stroke:#bcbcbc;stroke-width:0;stroke-dasharray:none;stroke-opacity:1"
       id="rect13724-3"
       width="0.6349991"
       height="0.15874934"
       x="-2.6225834"
       y="-6.3203373"
       transform="rotate(145)"
       inkscape:label="Small glare right"
       inkscape:path-effect="#path-effect13758-2"
       d="m -2.5725834,-6.3203373 h 0.5349991 a 0.05,0.05 45 0 1 0.05,0.05 v 0.058749 a 0.05,0.05 135 0 1 -0.05,0.05 h -0.5349991 a 0.05,0.05 45 0 1 -0.05,-0.05 v -0.058749 a 0.05,0.05 135 0 1 0.05,-0.05 z"
       sodipodi:type="rect" />
  </g>
  <g
     inkscape:groupmode="layer"
     id="layer5"
     inkscape:label="Mouth">
    <path
       id="path31053"
       style="fill:#452c2b;fill-opacity:1;stroke:#242e25;stroke-width:0.0713017;stroke-linecap:butt;stroke-dasharray:none;stroke-opacity:1;paint-order:normal"
       inkscape:label="Mouth background"
       d="m 1.8907477,5.2726874 c 0.062443,0.8013158 1.0874908,1.4386099 2.3427977,1.4385367 1.2622715,-7.4e-5 2.2915736,-0.6445861 2.3433443,-1.452207 0.00226,-0.035287 -0.026646,-0.063991 -0.062036,-0.063991 -0.027654,0 -0.071718,0.00599 -0.098598,0.012691 -0.013599,0.00339 -0.027271,0.00666 -0.041012,0.0098 -0.041194,0.00916 -0.082958,0.017212 -0.1251834,0.024137 -0.042049,0.00689 -0.08452,0.012654 -0.1273053,0.017279 -0.042901,0.00463 -0.086081,0.0081 -0.129427,0.010423 -0.04333,0.00235 -0.086793,0.00354 -0.1302756,0.00357 -0.043483,-2.85e-5 -0.086945,-0.00122 -0.130276,-0.00357 -0.043346,-0.00232 -0.086525,-0.0058 -0.1294269,-0.010424 -0.042785,-0.00463 -0.085256,-0.01039 -0.1273052,-0.017279 -0.042226,-0.00692 -0.083989,-0.014977 -0.1251835,-0.024136 -1.113e-4,-2.55e-5 -2.226e-4,-5.09e-5 -3.338e-4,-7.64e-5 -0.049516,-0.01134 -0.1299642,-0.028817 -0.180636,-0.032211 -0.1162511,-0.00779 -0.2485931,-0.00191 -0.349197,0.00575 -0.036738,0.0028 -0.093098,0.01968 -0.1271577,0.034241 -0.00519,0.00222 -0.010426,0.0044 -0.015696,0.00655 -0.02643,0.010764 -0.053773,0.020562 -0.0819,0.029348 -0.028158,0.00881 -0.057059,0.016596 -0.086567,0.023314 -0.029481,0.00666 -0.059515,0.012245 -0.089963,0.016731 -0.030518,0.0045 -0.061402,0.00789 -0.092508,0.010148 -0.03114,0.00223 -0.06245,0.00333 -0.093781,0.00329 -0.03119,3.01e-5 -0.062357,-0.00107 -0.093357,-0.00329 -0.031106,-0.00226 -0.06199,-0.00565 -0.092508,-0.010148 -0.030448,-0.00449 -0.060482,-0.010072 -0.089963,-0.016731 C 3.892309,5.2734827 3.8290532,5.2456148 3.7698616,5.2195781 3.7355402,5.2044811 3.6767278,5.1930854 3.638883,5.1932416 l -0.3862475,0.00159 c -0.025883,1.068e-4 -0.067092,0.00579 -0.092197,0.012086 -0.014652,0.00367 -0.029389,0.00721 -0.044207,0.010598 -0.041194,0.00916 -0.082958,0.017212 -0.1251836,0.024136 -0.042049,0.00689 -0.08452,0.012654 -0.1273052,0.017279 -0.042902,0.00463 -0.086081,0.0081 -0.129427,0.010423 -0.04333,0.00235 -0.086793,0.00354 -0.1302757,0.00357 C 2.560557,5.2728975 2.517095,5.271706 2.4737644,5.269356 2.4304174,5.267036 2.3872374,5.263556 2.3443357,5.258933 2.3015507,5.254303 2.2590797,5.248543 2.2170304,5.241654 2.1861541,5.236594 2.1555254,5.2309261 2.1157353,5.2220575 c -0.026602,-0.00593 -0.069898,-0.014836 -0.097049,-0.017376 -0.016758,-0.00157 -0.03555,-0.00308 -0.053554,-0.00443 -0.042724,-0.00319 -0.077719,0.02964 -0.074385,0.072434 z M 6.3707604,5.2182857 C 6.7965742,5.1418047 7.1448734,4.9764398 7.1448734,4.9764398 M 2.0666185,5.2121046 C 1.6408047,5.1356236 1.3379808,4.9743928 1.3379808,4.9743928"
       sodipodi:nodetypes="cscccccccccccccccccccccccccccccccccccccc"
       inkscape:original-d="M 4.3046875 2.7539062 C 4.0790109 2.8076372 3.9031102 2.9774347 3.7778579 3.1652443 C 3.4661914 3.6292173 3.2034623 4.1245169 2.8797907 4.5806628 C 2.7125535 4.813306 2.5014171 5.029745 2.227515 5.1314807 C 2.1075083 5.1542181 1.8685622 5.1702689 1.9276089 5.3540379 C 1.9743323 5.6002459 2.161429 5.8185398 2.4005835 5.8966996 C 2.6249711 5.9717974 2.8687222 5.913565 3.0778959 5.8186887 C 3.3096401 5.7217866 3.5323057 5.6051396 3.7522457 5.4842287 C 3.9536758 5.3702091 4.2123156 5.3264139 4.4199144 5.4505825 C 4.6468804 5.5726667 4.8100167 5.7788888 5.0078125 5.9394531 C 5.1771117 6.0830189 5.3783506 6.2220691 5.6089146 6.2226562 C 5.8853375 6.2299973 6.1580624 6.0814454 6.3091229 5.8510961 C 6.4407968 5.6654929 6.5732004 5.4636294 6.5917969 5.2304688 C 6.386349 5.2802682 6.1433291 5.2910123 5.9627941 5.1649691 C 5.7767963 5.0095529 5.6842181 4.7697874 5.5858088 4.553963 C 5.3921784 4.1222247 5.2564173 3.6601538 4.9874166 3.2660193 C 4.8426099 3.0338478 4.6383654 2.7951967 4.3535156 2.75 L 4.305302 2.7538571 L 4.3046875 2.7539062 z M 2.0214844 5.1757812 C 1.7936198 5.108724 1.5657552 5.0416667 1.3378906 4.9746094 C 1.5642273 5.0470663 1.7919955 5.1140201 2.0214844 5.1757812 z M 6.8847656 5.1933594 C 6.9429284 5.1857136 7.0060789 5.1872934 7.0566406 5.1523438 C 6.999349 5.1660156 6.9420573 5.1796875 6.8847656 5.1933594 z "
       inkscape:path-effect="#path-effect31141" />
    <path
       id="path41479"
       style="fill:#e8747f;fill-opacity:1;stroke:#242e25;stroke-width:0;stroke-linecap:butt;stroke-dasharray:none;stroke-opacity:1;paint-order:normal"
       class="UnoptimicedTransforms"
       d="m -2.5745198,5.4270589 c -0.00241,-1.236e-4 -0.00482,-3.861e-4 -0.00723,-5.168e-4 -0.021673,-0.00116 -0.043537,-0.0024 -0.065112,-0.00413 -0.021576,-0.00174 -0.043145,-0.00389 -0.064596,-0.0062 -0.021393,-0.00232 -0.04234,-0.00487 -0.063562,-0.00775 -0.021222,-0.00288 -0.042537,-0.00586 -0.063562,-0.0093 -0.021113,-0.00346 -0.042177,-0.00734 -0.063045,-0.011369 -0.020868,-0.00402 -0.041414,-0.00834 -0.062012,-0.012919 h -5.167e-4 c -0.012379,-0.00284 -0.026561,-0.00602 -0.041858,-0.0093 -0.015297,-0.00329 -0.031741,-0.00671 -0.048059,-0.00982 -0.016318,-0.00311 -0.032618,-0.00598 -0.048059,-0.00827 -0.00772,-0.00115 -0.015075,-0.00228 -0.022221,-0.0031 -0.00715,-8.249e-4 -0.01382,-0.00113 -0.020154,-0.00155 -0.014531,-9.738e-4 -0.029501,-0.00201 -0.044442,-0.00258 -0.014941,-5.698e-4 -0.030312,-8.213e-4 -0.045475,-0.00103 -0.015163,-2.122e-4 -0.030276,-9.88e-5 -0.045475,0 -0.015199,9.89e-5 -0.030427,1.534e-4 -0.045475,5.168e-4 -0.030096,7.269e-4 -0.059479,0.00211 -0.08785,0.00362 -0.028371,0.00151 -0.055464,0.00325 -0.080615,0.00517 -0.00459,3.5e-4 -0.00935,7.923e-4 -0.014469,0.00155 -0.00512,7.58e-4 -0.010529,0.00148 -0.01602,0.00258 -0.010982,0.0022 -0.022637,0.00507 -0.034106,0.00827 -0.01147,0.0032 -0.022942,0.00718 -0.03359,0.010852 -0.010647,0.00367 -0.020424,0.00721 -0.028939,0.010852 -0.00519,0.00222 -0.01075,0.00457 -0.01602,0.00672 -0.013215,0.00538 -0.026652,0.010093 -0.040308,0.014986 -0.013655,0.00489 -0.027278,0.00956 -0.041341,0.013953 -0.014079,0.00441 -0.028458,0.00903 -0.042892,0.012919 -0.014433,0.00389 -0.029171,0.00749 -0.043925,0.010852 -0.01474,0.00333 -0.029442,0.006 -0.044442,0.00878 -0.015,0.00279 -0.030251,0.00551 -0.045475,0.00775 -0.015259,0.00225 -0.030568,0.00399 -0.045992,0.00568 -0.015424,0.00169 -0.030956,0.00352 -0.046509,0.00465 -0.01557,0.00112 -0.030872,0.00152 -0.046509,0.00207 -0.015636,5.488e-4 -0.03136,0.00105 -0.047026,0.00103 -0.015595,1.5e-5 -0.03146,-4.848e-4 -0.047026,-0.00103 -0.015566,-5.487e-4 -0.031009,-9.57e-4 -0.046509,-0.00207 -0.015553,-0.00113 -0.031085,-0.00296 -0.046509,-0.00465 -0.015424,-0.00169 -0.030733,-0.00344 -0.045992,-0.00568 -0.015224,-0.00225 -0.030476,-0.00496 -0.045475,-0.00775 -0.015,-0.00279 -0.029701,-0.00546 -0.044442,-0.00878 -0.00812,-0.00137 -0.016223,-0.00331 -0.024288,-0.00517 -0.00806,-0.00186 -0.016291,-0.00392 -0.024288,-0.0062 -0.008,-0.00228 -0.015851,-0.00461 -0.023771,-0.00723 -0.00792,-0.00263 -0.015937,-0.00537 -0.023771,-0.00827 -0.015668,-0.0058 -0.030723,-0.012158 -0.045992,-0.018604 -0.015269,-0.00645 -0.030677,-0.013128 -0.045475,-0.019637 -0.00429,-0.00189 -0.00899,-0.00393 -0.013953,-0.00568 -0.00497,-0.00176 -0.010037,-0.00306 -0.015503,-0.00465 -0.010931,-0.00319 -0.022761,-0.00591 -0.034623,-0.00827 -0.011862,-0.00236 -0.023768,-0.0044 -0.03514,-0.00568 -0.00569,-6.411e-4 -0.01124,-0.00122 -0.016536,-0.00155 -0.0053,-3.26e-4 -0.010256,-5.364e-4 -0.014986,-5.167e-4 l -0.3865397,0.00155 c -0.00647,2.67e-5 -0.013809,3.873e-4 -0.021704,0.00103 -0.0079,6.462e-4 -0.01595,0.00147 -0.024288,0.00258 -0.00834,0.00111 -0.017006,0.00271 -0.024805,0.00413 -0.0078,0.00142 -0.014911,0.00308 -0.021187,0.00465 -0.014652,0.00367 -0.029625,0.00695 -0.044442,0.010335 -0.020597,0.00458 -0.041143,0.0089 -0.062012,0.012919 -0.020868,0.00402 -0.041932,0.00791 -0.063045,0.011369 -0.021025,0.00345 -0.041823,0.00642 -0.063045,0.0093 -0.021222,0.00288 -0.042686,0.00544 -0.064079,0.00775 -0.021451,0.00231 -0.04302,0.00446 -0.064596,0.0062 -0.021576,0.00174 -0.043439,0.00297 -0.065112,0.00413 -0.00137,7.44e-5 -0.00276,-7.21e-5 -0.00413,0 a 2.6458328,1.3229163 0 0 0 -0.7338053,0.3824056 c 0.00283,0.00581 0.00533,0.01179 0.00827,0.01757 0.00581,0.011421 0.011873,0.022807 0.018087,0.034106 0.00621,0.011299 0.012506,0.022416 0.01912,0.03359 0.00661,0.011174 0.013662,0.022028 0.020671,0.033073 0.00701,0.011045 0.014307,0.02216 0.021704,0.033073 0.0074,0.010913 0.014957,0.021779 0.022738,0.032556 0.00778,0.010777 0.015613,0.021402 0.023771,0.032039 0.00816,0.010637 0.016274,0.021029 0.024805,0.031523 0.00853,0.010494 0.017457,0.021176 0.026355,0.031523 0.0089,0.010347 0.01813,0.020809 0.027388,0.031006 0.00926,0.010197 0.018808,0.01993 0.028422,0.029972 0.00961,0.010042 0.018975,0.020088 0.028939,0.029972 0.00996,0.00988 0.020181,0.019732 0.030489,0.029456 0.010308,0.00972 0.020876,0.019381 0.031523,0.028939 0.010647,0.00956 0.021576,0.019032 0.032556,0.028422 0.01098,0.00939 0.022282,0.018688 0.03359,0.027905 0.011308,0.00922 0.022477,0.018347 0.034106,0.027388 0.01163,0.00904 0.023711,0.018009 0.035657,0.026872 0.011946,0.00886 0.023917,0.017676 0.036173,0.026355 0.012257,0.00868 0.024645,0.017345 0.037207,0.025838 0.012562,0.00849 0.025379,0.017019 0.03824,0.025321 0.012862,0.0083 0.025602,0.016179 0.038757,0.024288 0.013156,0.00811 0.026347,0.016377 0.039791,0.024288 0.013444,0.00791 0.027097,0.015544 0.040824,0.023254 0.013727,0.00771 0.027854,0.015232 0.041858,0.022738 0.014004,0.00751 0.028099,0.014924 0.042375,0.022221 0.014276,0.0073 0.02835,0.014619 0.042891,0.021704 0.014542,0.00709 0.029639,0.013801 0.044442,0.020671 0.014802,0.00687 0.029384,0.01402 0.044442,0.020671 0.015057,0.00665 0.030169,0.013209 0.045475,0.019637 0.015307,0.00643 0.030958,0.012402 0.046509,0.018604 0.01555,0.0062 0.031237,0.012632 0.047026,0.018604 0.015789,0.00597 0.031521,0.011832 0.047542,0.01757 0.016021,0.00574 0.032328,0.011036 0.048576,0.016536 0.016248,0.0055 0.032623,0.011276 0.049093,0.016536 0.016469,0.00526 0.032924,0.00997 0.049609,0.014986 0.016685,0.00502 0.033747,0.010218 0.050643,0.014986 0.016896,0.00477 0.033543,0.00944 0.050643,0.013953 0.0171,0.00452 0.034377,0.00866 0.051677,0.012919 0.017299,0.00426 0.034701,0.0084 0.052193,0.012402 0.017493,0.004 0.03503,0.00815 0.05271,0.011886 0.01768,0.00374 0.035881,0.00738 0.053744,0.010852 0.017863,0.00347 0.035704,0.00661 0.053743,0.00982 0.018039,0.0032 0.03605,0.00637 0.05426,0.0093 0.01821,0.00293 0.036401,0.00561 0.054777,0.00827 0.018376,0.00265 0.036758,0.00538 0.055294,0.00775 0.018536,0.00237 0.03712,0.00463 0.05581,0.00672 0.01869,0.00209 0.037488,0.00388 0.056327,0.00568 0.018839,0.0018 0.037862,0.00314 0.056844,0.00465 0.018982,0.00151 0.038241,0.00292 0.057361,0.00413 0.01912,0.00121 0.038109,0.0027 0.057361,0.00362 0.019252,9.163e-4 0.0385,0.00145 0.057878,0.00207 0.019378,6.14e-4 0.038895,0.00124 0.058394,0.00155 0.019499,3.082e-4 0.039297,5.179e-4 0.058911,5.167e-4 0.019723,-1.1e-6 0.039305,-2.028e-4 0.058911,-5.167e-4 0.019606,-3.14e-4 0.03891,-9.272e-4 0.058394,-0.00155 0.019484,-6.232e-4 0.039038,-0.00166 0.058394,-0.00258 0.019356,-9.286e-4 0.038655,-0.00187 0.057878,-0.0031 0.019223,-0.00123 0.038278,-0.00261 0.057361,-0.00413 0.019083,-0.00153 0.037906,-0.00334 0.056844,-0.00517 0.018938,-0.00182 0.038056,-0.00357 0.056844,-0.00568 0.018788,-0.00211 0.037696,-0.00432 0.056327,-0.00672 0.018631,-0.0024 0.036825,-0.00507 0.055294,-0.00775 0.018469,-0.00268 0.036992,-0.0053 0.055294,-0.00827 0.018301,-0.00296 0.036649,-0.00606 0.054777,-0.0093 0.018128,-0.00324 0.036311,-0.00682 0.05426,-0.010335 0.017949,-0.00351 0.035462,-0.00707 0.053227,-0.010852 0.017764,-0.00378 0.035653,-0.00784 0.053227,-0.011886 0.017574,-0.00405 0.034816,-0.00809 0.052193,-0.012402 0.017378,-0.00431 0.035017,-0.00887 0.052193,-0.013436 0.017176,-0.00457 0.034191,-0.00913 0.05116,-0.013953 0.016968,-0.00482 0.033888,-0.00992 0.050643,-0.014986 0.016755,-0.00507 0.033073,-0.010186 0.049609,-0.015503 0.016536,-0.00532 0.033298,-0.01046 0.049609,-0.01602 0.016312,-0.00556 0.032494,-0.011254 0.048576,-0.017053 0.016082,-0.0058 0.031697,-0.012052 0.047542,-0.018087 0.015846,-0.00604 0.031938,-0.012336 0.047542,-0.018604 0.015604,-0.00627 0.030635,-0.012625 0.045992,-0.01912 0.015357,-0.0065 0.030888,-0.012917 0.045992,-0.019637 0.015104,-0.00672 0.030113,-0.013729 0.044959,-0.02067 0.014845,-0.00694 0.029344,-0.014029 0.043925,-0.021187 0.014581,-0.00716 0.029097,-0.014332 0.043408,-0.021704 0.014311,-0.00737 0.028339,-0.014639 0.042375,-0.022221 0.014035,-0.00758 0.028104,-0.015466 0.041858,-0.023254 0.013754,-0.00779 0.027357,-0.01578 0.040824,-0.023771 0.013467,-0.00799 0.026616,-0.016098 0.039791,-0.024288 0.013174,-0.00819 0.026398,-0.016419 0.039274,-0.024805 0.012876,-0.00839 0.025669,-0.016744 0.038241,-0.025321 0.012572,-0.00858 0.024945,-0.017073 0.037207,-0.025838 0.012262,-0.00877 0.024227,-0.017922 0.036173,-0.026872 0.011947,-0.00895 0.024031,-0.017742 0.035657,-0.026872 0.011626,-0.00913 0.022807,-0.018598 0.034106,-0.027905 0.011299,-0.00931 0.022623,-0.018425 0.03359,-0.027905 0.010966,-0.00948 0.021411,-0.019289 0.032039,-0.028939 0.010628,-0.00965 0.021238,-0.019123 0.031523,-0.028939 0.010285,-0.00982 0.020554,-0.019994 0.030489,-0.029972 0.00994,-0.00998 0.019876,-0.019836 0.029456,-0.029972 0.00958,-0.010137 0.018686,-0.020197 0.027905,-0.030489 0.00922,-0.010292 0.018536,-0.02108 0.027389,-0.031523 0.00885,-0.010443 0.017358,-0.020932 0.025838,-0.031523 0.00848,-0.010591 0.016702,-0.020788 0.024805,-0.031523 0.0081,-0.010734 0.016052,-0.021681 0.023771,-0.032556 0.00772,-0.010875 0.015408,-0.022062 0.022738,-0.033073 0.00733,-0.011011 0.014253,-0.021929 0.021187,-0.033073 0.00693,-0.011144 0.01362,-0.022316 0.020154,-0.03359 0.00653,-0.011273 0.012993,-0.022708 0.01912,-0.034106 0.00613,-0.011399 0.011854,-0.022586 0.01757,-0.034107 0.00126,-0.00254 0.00238,-0.00521 0.00362,-0.00775 a 2.6458328,1.3229163 0 0 0 -0.7307047,-0.381372 z"
       transform="matrix(0.9723611,0,0,0.9723611,8.2021177,0.01652191)"
       inkscape:label="Tongue" />
  </g>
  <g
     inkscape:groupmode="layer"
     id="layer6"
     inkscape:label="Nose">
    <ellipse
       style="fill:#242e25;fill-opacity:1;stroke:#242e25;stroke-width:0;stroke-linecap:butt;stroke-dasharray:none;stroke-opacity:1;paint-order:normal"
       id="path41483"
       cx="2.5529516"
       cy="5.601831"
       rx="0.070158243"
       ry="0.12277693"
       transform="rotate(-15)"
       inkscape:label="Nose left" />
    <ellipse
       style="fill:#242e25;fill-opacity:1;stroke:#242e25;stroke-width:0;stroke-linecap:butt;stroke-dasharray:none;stroke-opacity:1;paint-order:normal"
       id="path41483-1"
       cx="-5.6251998"
       cy="3.4105024"
       rx="0.070158243"
       ry="0.12277693"
       transform="matrix(-0.96592582,-0.25881905,-0.25881905,0.96592582,0,0)"
       inkscape:label="Nose right" />
  </g>
</svg>
